<?xml version="1.0" encoding="utf-8"?>
<!-- Generator: Adobe Illustrator 16.0.0, SVG Export Plug-In . SVG Version: 6.00 Build 0)  -->
<!DOCTYPE svg PUBLIC "-//W3C//DTD SVG 1.1//EN" "http://www.w3.org/Graphics/SVG/1.1/DTD/svg11.dtd">
<svg version="1.1" id="Layer_1" xmlns="http://www.w3.org/2000/svg" xmlns:xlink="http://www.w3.org/1999/xlink" x="0px" y="0px"
	 width="100px" height="100px" viewBox="0 0 100 100" enable-background="new 0 0 100 100" xml:space="preserve">
<g>
	<path d="M50.096,58.555c14.782,0,26.805-12.025,26.805-26.806c0-14.78-12.023-26.805-26.805-26.805
		c-14.78,0-26.804,12.025-26.804,26.805C23.292,46.53,35.316,58.555,50.096,58.555z M50.096,10.928
		c11.481,0,20.823,9.34,20.823,20.821c0,11.481-9.342,20.823-20.823,20.823c-11.48,0-20.82-9.342-20.82-20.823
		C29.276,20.269,38.616,10.928,50.096,10.928z"/>
	<path d="M64.751,64H35.249C18.07,64,4.094,79,4.094,95h5.985c0-13,11.056-25,25.169-25h29.502C78.63,70,89.92,82,89.92,95h5.985
		C95.905,79,81.93,64,64.751,64z"/>
</g>
</svg>
